<svg id="Layer_1" data-name="Layer 1" xmlns="http://www.w3.org/2000/svg" xmlns:xlink="http://www.w3.org/1999/xlink" viewBox="0 0 1200 1200"><defs><linearGradient id="linear-gradient" x1="312.08" y1="469.31" x2="885.52" y2="294.86" gradientUnits="userSpaceOnUse"><stop offset="0" stop-color="#e7322f"/><stop offset="0.18" stop-color="#7b76b6"/><stop offset="0.4" stop-color="#00b0b0"/><stop offset="0.46" stop-color="#03afb0"/><stop offset="0.5" stop-color="#0eaab1"/><stop offset="0.54" stop-color="#1fa2b2"/><stop offset="0.58" stop-color="#3797b4"/><stop offset="0.62" stop-color="#5689b6"/><stop offset="0.66" stop-color="#7c78b8"/><stop offset="0.85" stop-color="#e98a7b"/><stop offset="0.97" stop-color="#e6404b"/><stop offset="0.98" stop-color="#e23d47"/><stop offset="0.99" stop-color="#d7333c"/><stop offset="1" stop-color="#c52229"/><stop offset="1" stop-color="#b7151b"/></linearGradient></defs><path d="M137.27,957.7h95.26V929h-61.4V820.93H137.27Z" style="fill:#2f234f"/><path d="M289,938.57c-13.59,0-20.66-11.86-20.66-29.65s7.07-29.84,20.66-29.84,20.84,12,20.84,29.84S302.55,938.57,289,938.57Zm.19,22.19c31.56,0,52.22-22.38,52.22-51.84s-20.66-51.83-52.22-51.83c-31.37,0-52.41,22.38-52.41,51.83S257.79,960.76,289.16,960.76Z" style="fill:#2f234f"/><path d="M396,991.56c14.53,0,27.35-3.26,36-10.91,7.84-7.07,13-17.79,13-32.51V859.76H415.13v10.52h-.38c-5.74-8.22-14.54-13.39-27.54-13.39-24.3,0-41.13,20.28-41.13,49,0,30,20.47,46.48,42.47,46.48,11.86,0,19.32-4.78,25.05-11.28h.77v9.75c0,11.86-5.55,18.75-18.75,18.75-10.33,0-15.49-4.4-17.21-9.57H348.19C351.25,980.46,369,991.56,396,991.56Zm-.2-62.36c-11.66,0-19.31-9.57-19.31-24.29,0-14.92,7.65-24.49,19.31-24.49,13,0,19.9,11.1,19.9,24.29C415.71,918.49,409.4,929.2,395.81,929.2Z" style="fill:#2f234f"/><path d="M506.33,938.57c-13.58,0-20.66-11.86-20.66-29.65s7.08-29.84,20.66-29.84,20.85,12,20.85,29.84S519.91,938.57,506.33,938.57Zm.19,22.19c31.56,0,52.22-22.38,52.22-51.84s-20.66-51.83-52.22-51.83c-31.37,0-52.41,22.38-52.41,51.83S475.15,960.76,506.52,960.76Z" style="fill:#2f234f"/><path d="M567.85,957.7H599V859.76H567.85Zm0-111.52H599V820.93H567.85Z" style="fill:#2f234f"/><path d="M612.55,990h31.18V947.56h.38c6.12,8.23,15.11,13.2,27.74,13.2,25.63,0,42.65-20.28,42.65-52,0-29.46-15.87-51.84-41.89-51.84-13.39,0-23,5.93-29.65,14.73h-.57V859.76H612.55Zm51.26-53.37c-13.39,0-21-10.9-21-26.78S649.66,882,663.24,882c13.39,0,19.7,11.1,19.7,27.93C682.94,926.52,675.67,936.66,663.81,936.66Z" style="fill:#2f234f"/><path d="M765.27,960.76c25.63,0,44.57-11.09,44.57-32.52,0-25.06-20.28-29.46-37.49-32.32-12.43-2.3-23.53-3.26-23.53-10.14,0-6.12,5.93-9,13.58-9,8.61,0,14.54,2.68,15.69,11.47h28.69c-1.53-19.32-16.45-31.37-44.19-31.37-23.14,0-42.27,10.72-42.27,31.37,0,23,18.17,27.55,35.2,30.42,13,2.29,24.86,3.25,24.86,12.05,0,6.31-5.93,9.75-15.3,9.75-10.33,0-16.83-4.78-18-14.53H717.64C718.6,947.56,736.58,960.76,765.27,960.76Z" style="fill:#2f234f"/><path d="M852.19,960.57c13.58,0,22.18-5.36,29.26-14.92H882V957.7h29.84V859.76H880.69v54.71c0,11.67-6.51,19.7-17.22,19.7-10,0-14.73-5.93-14.73-16.64V859.76h-31V924C817.76,945.84,829.61,960.57,852.19,960.57Z" style="fill:#2f234f"/><path d="M925.43,957.7h31.18V902.8c0-11.67,5.74-19.89,15.49-19.89,9.38,0,13.78,6.12,13.78,16.64V957.7h31.17V902.8c0-11.67,5.55-19.89,15.5-19.89,9.37,0,13.77,6.12,13.77,16.64V957.7h31.18V894c0-22-11.1-37.11-33.28-37.11-12.63,0-23.15,5.36-30.8,17.22H1013c-5-10.52-14.73-17.22-27.55-17.22-14.15,0-23.52,6.7-29.65,16.84h-.57v-14H925.43Z" style="fill:#2f234f"/><path d="M137.27,958.7h95.26V930h-61.4V821.93H137.27Z" style="fill:#2f234f"/><path d="M289,939.57c-13.59,0-20.66-11.86-20.66-29.65s7.07-29.84,20.66-29.84,20.84,12,20.84,29.84S302.55,939.57,289,939.57Zm.19,22.19c31.56,0,52.22-22.38,52.22-51.84s-20.66-51.83-52.22-51.83c-31.37,0-52.41,22.38-52.41,51.83S257.79,961.76,289.16,961.76Z" style="fill:#2f234f"/><path d="M396,992.56c14.53,0,27.35-3.26,36-10.91,7.84-7.07,13-17.79,13-32.51V860.76H415.13v10.52h-.38c-5.74-8.22-14.54-13.39-27.54-13.39-24.3,0-41.13,20.28-41.13,49,0,30,20.47,46.48,42.47,46.48,11.86,0,19.32-4.78,25.05-11.28h.77v9.75c0,11.86-5.55,18.75-18.75,18.75-10.33,0-15.49-4.4-17.21-9.57H348.19C351.25,981.46,369,992.56,396,992.56Zm-.2-62.36c-11.66,0-19.31-9.57-19.31-24.29,0-14.92,7.65-24.49,19.31-24.49,13,0,19.9,11.1,19.9,24.29C415.71,919.49,409.4,930.2,395.81,930.2Z" style="fill:#2f234f"/><path d="M506.33,939.57c-13.58,0-20.66-11.86-20.66-29.65s7.08-29.84,20.66-29.84,20.85,12,20.85,29.84S519.91,939.57,506.33,939.57Zm.19,22.19c31.56,0,52.22-22.38,52.22-51.84s-20.66-51.83-52.22-51.83c-31.37,0-52.41,22.38-52.41,51.83S475.15,961.76,506.52,961.76Z" style="fill:#2f234f"/><path d="M567.85,958.7H599V860.76H567.85Zm0-111.52H599V821.93H567.85Z" style="fill:#2f234f"/><path d="M612.55,991h31.18V948.56h.38c6.12,8.23,15.11,13.2,27.74,13.2,25.63,0,42.65-20.28,42.65-52,0-29.46-15.87-51.84-41.89-51.84-13.39,0-23,5.93-29.65,14.73h-.57V860.76H612.55Zm51.26-53.37c-13.39,0-21-10.9-21-26.78S649.66,883,663.24,883c13.39,0,19.7,11.1,19.7,27.93C682.94,927.52,675.67,937.66,663.81,937.66Z" style="fill:#2f234f"/><path d="M765.27,961.76c25.63,0,44.57-11.09,44.57-32.52,0-25.06-20.28-29.46-37.49-32.32-12.43-2.3-23.53-3.26-23.53-10.14,0-6.12,5.93-9,13.58-9,8.61,0,14.54,2.68,15.69,11.47h28.69c-1.53-19.32-16.45-31.37-44.19-31.37-23.14,0-42.27,10.72-42.27,31.37,0,23,18.17,27.55,35.2,30.42,13,2.29,24.86,3.25,24.86,12.05,0,6.31-5.93,9.75-15.3,9.75-10.33,0-16.83-4.78-18-14.53H717.64C718.6,948.56,736.58,961.76,765.27,961.76Z" style="fill:#2f234f"/><path d="M852.19,961.57c13.58,0,22.18-5.36,29.26-14.92H882V958.7h29.84V860.76H880.69v54.71c0,11.67-6.51,19.7-17.22,19.7-10,0-14.73-5.93-14.73-16.64V860.76h-31V925C817.76,946.84,829.61,961.57,852.19,961.57Z" style="fill:#2f234f"/><path d="M925.43,958.7h31.18V903.8c0-11.67,5.74-19.89,15.49-19.89,9.38,0,13.78,6.12,13.78,16.64V958.7h31.17V903.8c0-11.67,5.55-19.89,15.5-19.89,9.37,0,13.77,6.12,13.77,16.64V958.7h31.18V895c0-22-11.1-37.11-33.28-37.11-12.63,0-23.15,5.36-30.8,17.22H1013c-5-10.52-14.73-17.22-27.55-17.22-14.15,0-23.52,6.7-29.65,16.84h-.57v-14H925.43Z" style="fill:#2f234f"/><path d="M428.49,135.84a301,301,0,0,0-57.65,52.65c68.76-6.38,156.12,4,257.54,54.75,108.31,54.15,195.52,56,256.21,44.28a297.51,297.51,0,0,0-20.65-47.94c-69.48,7.33-158.55-2.37-262.36-54.27C535.66,152.35,477.56,138.77,428.49,135.84Zm394.86,46a300.18,300.18,0,0,0-298.81-90.3,564,564,0,0,1,103.84,40.2C704.38,169.71,770,181.94,823.35,181.81Zm74.22,164.24c-73.33,14.48-174.58,11.5-296-49.2-113.5-56.75-203.84-56-264.77-42.5q-4.71,1.05-9.21,2.2a297.37,297.37,0,0,0-18.91,54.53q7.32-1.95,15.12-3.7c73.92-16.42,178.35-15.71,304.57,47.4,113.51,56.75,203.85,56,264.78,42.5,2.08-.46,4.14-.94,6.16-1.44q.33-7.08.33-14.26A302,302,0,0,0,897.57,346.05Zm-8,113c-72.62,12.69-170.92,7.82-288-50.69-113.5-56.76-203.84-56-264.77-42.5a297.06,297.06,0,0,0-36.42,10.53c0,1.71,0,3.44,0,5.16,0,165.5,134.16,299.66,299.65,299.66C738.7,681.24,855.39,587,889.54,459.08Z" style="fill:url(#linear-gradient)"/><path d="M137.27,959.7h95.26V931h-61.4V822.93H137.27Z" style="fill:#2f234f"/><path d="M289,940.57c-13.59,0-20.66-11.86-20.66-29.65s7.07-29.84,20.66-29.84,20.84,12,20.84,29.84S302.55,940.57,289,940.57Zm.19,22.19c31.56,0,52.22-22.38,52.22-51.84s-20.66-51.83-52.22-51.83c-31.37,0-52.41,22.38-52.41,51.83S257.79,962.76,289.16,962.76Z" style="fill:#2f234f"/><path d="M396,993.56c14.53,0,27.35-3.26,36-10.91,7.84-7.07,13-17.79,13-32.51V861.76H415.13v10.52h-.38c-5.74-8.22-14.54-13.39-27.54-13.39-24.3,0-41.13,20.28-41.13,49,0,30,20.47,46.48,42.47,46.48,11.86,0,19.32-4.78,25.05-11.28h.77v9.75c0,11.86-5.55,18.75-18.75,18.75-10.33,0-15.49-4.4-17.21-9.57H348.19C351.25,982.46,369,993.56,396,993.56Zm-.2-62.36c-11.66,0-19.31-9.57-19.31-24.29,0-14.92,7.65-24.49,19.31-24.49,13,0,19.9,11.1,19.9,24.29C415.71,920.49,409.4,931.2,395.81,931.2Z" style="fill:#2f234f"/><path d="M506.33,940.57c-13.58,0-20.66-11.86-20.66-29.65s7.08-29.84,20.66-29.84,20.85,12,20.85,29.84S519.91,940.57,506.33,940.57Zm.19,22.19c31.56,0,52.22-22.38,52.22-51.84s-20.66-51.83-52.22-51.83c-31.37,0-52.41,22.38-52.41,51.83S475.15,962.76,506.52,962.76Z" style="fill:#2f234f"/><path d="M567.85,959.7H599V861.76H567.85Zm0-111.52H599V822.93H567.85Z" style="fill:#2f234f"/><path d="M612.55,992h31.18V949.56h.38c6.12,8.23,15.11,13.2,27.74,13.2,25.63,0,42.65-20.28,42.65-52,0-29.46-15.87-51.84-41.89-51.84-13.39,0-23,5.93-29.65,14.73h-.57V861.76H612.55Zm51.26-53.37c-13.39,0-21-10.9-21-26.78S649.66,884,663.24,884c13.39,0,19.7,11.1,19.7,27.93C682.94,928.52,675.67,938.66,663.81,938.66Z" style="fill:#2f234f"/><path d="M765.27,962.76c25.63,0,44.57-11.09,44.57-32.52,0-25.06-20.28-29.46-37.49-32.32-12.43-2.3-23.53-3.26-23.53-10.14,0-6.12,5.93-9,13.58-9,8.61,0,14.54,2.68,15.69,11.47h28.69c-1.53-19.32-16.45-31.37-44.19-31.37-23.14,0-42.27,10.72-42.27,31.37,0,23,18.17,27.55,35.2,30.42,13,2.29,24.86,3.25,24.86,12.05,0,6.31-5.93,9.75-15.3,9.75-10.33,0-16.83-4.78-18-14.53H717.64C718.6,949.56,736.58,962.76,765.27,962.76Z" style="fill:#2f234f"/><path d="M852.19,962.57c13.58,0,22.18-5.36,29.26-14.92H882V959.7h29.84V861.76H880.69v54.71c0,11.67-6.51,19.7-17.22,19.7-10,0-14.73-5.93-14.73-16.64V861.76h-31V926C817.76,947.84,829.61,962.57,852.19,962.57Z" style="fill:#2f234f"/><path d="M925.43,959.7h31.18V904.8c0-11.67,5.74-19.89,15.49-19.89,9.38,0,13.78,6.12,13.78,16.64V959.7h31.17V904.8c0-11.67,5.55-19.89,15.5-19.89,9.37,0,13.77,6.12,13.77,16.64V959.7h31.18V896c0-22-11.1-37.11-33.28-37.11-12.63,0-23.15,5.36-30.8,17.22H1013c-5-10.52-14.73-17.22-27.55-17.22-14.15,0-23.52,6.7-29.65,16.84h-.57v-14H925.43Z" style="fill:#2f234f"/></svg>