<svg data-name="Layer 1" xmlns="http://www.w3.org/2000/svg" viewBox="0 0 2515.81 1200">
  <defs>
    <linearGradient id="a" x1="328.8" y1="682.15" x2="902.24" y2="507.7" gradientUnits="userSpaceOnUse">
      <stop offset="0" stop-color="#e7322f"/>
      <stop offset=".18" stop-color="#7b76b6"/>
      <stop offset=".4" stop-color="#00b0b0"/>
      <stop offset=".46" stop-color="#03afb0"/>
      <stop offset=".5" stop-color="#0eaab1"/>
      <stop offset=".54" stop-color="#1fa2b2"/>
      <stop offset=".58" stop-color="#3797b4"/>
      <stop offset=".62" stop-color="#5689b6"/>
      <stop offset=".66" stop-color="#7c78b8"/>
      <stop offset=".85" stop-color="#e98a7b"/>
      <stop offset=".97" stop-color="#e6404b"/>
      <stop offset=".98" stop-color="#e23d47"/>
      <stop offset=".99" stop-color="#d7333c"/>
      <stop offset="1" stop-color="#c52229"/>
      <stop offset="1" stop-color="#b7151b"/>
    </linearGradient>
  </defs>
  <path d="M445.21 348.68a301.34 301.34 0 0 0-57.65 52.65c68.76-6.38 156.12 4 257.54 54.75 108.31 54.16 195.52 56 256.21 44.28a297.51 297.51 0 0 0-20.65-47.94c-69.48 7.33-158.55-2.37-262.36-54.27-65.92-32.96-124.02-46.53-173.09-49.47Zm394.86 46a300.16 300.16 0 0 0-298.81-90.31 564 564 0 0 1 103.84 40.2c76.01 37.98 141.62 50.21 194.97 50.09Zm74.22 164.23c-73.32 14.48-174.58 11.5-296-49.2-113.5-56.75-203.84-56-264.77-42.5q-4.71 1.05-9.21 2.2a297.37 297.37 0 0 0-18.91 54.53q7.32-1.95 15.12-3.7c73.92-16.42 178.35-15.71 304.57 47.4 113.51 56.75 203.85 56 264.78 42.5 2.08-.46 4.14-.94 6.16-1.44.22-4.72.34-9.48.34-14.25a302 302 0 0 0-2.08-35.56Zm-8 113c-72.62 12.7-170.92 7.82-288-50.69-113.5-56.76-203.84-56-264.77-42.5a297.06 297.06 0 0 0-36.42 10.53v5.17c0 165.49 134.16 299.65 299.65 299.65 138.67.01 255.36-94.22 289.51-222.15Z" fill="url(#a)"/>
  <path d="M1114 693.41h124.48v-37.49h-80.24V514.69H1114ZM1312.24 668.41c-17.75 0-27-15.49-27-38.74s9.25-39 27-39 27.24 15.74 27.24 39-9.48 38.74-27.24 38.74Zm.25 29c41.24 0 68.23-29.25 68.23-67.74s-27-67.74-68.23-67.74c-41 0-68.49 29.25-68.49 67.74s27.49 67.74 68.49 67.74ZM1452.11 737.65c19 0 35.75-4.25 47-14.25 10.25-9.24 17-23.24 17-42.49V565.43h-39v13.75h-.5c-7.5-10.75-19-17.5-36-17.5-31.74 0-53.74 26.5-53.74 64 0 39.24 26.75 60.74 55.49 60.74 15.5 0 25.25-6.25 32.75-14.75h1v12.75c0 15.5-7.25 24.5-24.5 24.5-13.5 0-20.24-5.75-22.49-12.5h-39.5c4 26.73 27.25 41.23 62.49 41.23Zm-.25-81.48c-15.25 0-25.24-12.5-25.24-31.75 0-19.5 10-32 25.24-32 17 0 26 14.49 26 31.74 0 18.01-8.25 32.01-26 32.01ZM1596.28 668.41c-17.75 0-27-15.49-27-38.74s9.25-39 27-39 27.25 15.74 27.25 39-9.53 38.74-27.25 38.74Zm.25 29c41.24 0 68.24-29.25 68.24-67.74s-27-67.74-68.24-67.74c-41 0-68.49 29.25-68.49 67.74s27.5 67.74 68.49 67.74ZM1676.67 693.41h40.74v-128h-40.74Zm0-145.73h40.74v-33h-40.74ZM1735.08 735.65h40.75v-55.49h.5c8 10.75 19.74 17.25 36.24 17.25 33.49 0 55.74-26.5 55.74-68 0-38.49-20.75-67.74-54.74-67.74-17.5 0-30 7.75-38.74 19.25h-.75v-15.5h-39Zm67-69.74c-17.5 0-27.49-14.24-27.49-35s9-36.49 26.74-36.49c17.5 0 25.75 14.49 25.75 36.49-.01 21.76-9.51 35-25.01 35ZM1934.65 697.41c33.5 0 58.24-14.5 58.24-42.49 0-32.75-26.49-38.5-49-42.25-16.25-3-30.74-4.25-30.74-13.25 0-8 7.75-11.74 17.74-11.74 11.25 0 19 3.5 20.5 15h37.49c-2-25.24-21.49-41-57.74-41-30.24 0-55.24 14-55.24 41 0 30 23.75 36 46 39.75 17 3 32.49 4.25 32.49 15.74 0 8.25-7.75 12.75-20 12.75-13.49 0-22-6.25-23.49-19h-38.5c1.26 28.24 24.76 45.49 62.25 45.49ZM2048.23 697.16c17.75 0 29-7 38.24-19.5h.75v15.75h39v-128h-40.75v71.49c0 15.25-8.5 25.74-22.49 25.74-13 0-19.25-7.74-19.25-21.74v-75.47h-40.49v84c0 28.48 15.49 47.73 44.99 47.73ZM2143.94 693.41h40.75v-71.74c0-15.25 7.49-26 20.24-26 12.25 0 18 8 18 21.74v76h40.74v-71.74c0-15.25 7.25-26 20.25-26 12.25 0 18 8 18 21.74v76h40.74v-83.24c0-28.74-14.5-48.49-43.49-48.49-16.5 0-30.25 7-40.25 22.5h-.5c-6.5-13.75-19.24-22.5-36-22.5-18.5 0-30.75 8.75-38.74 22h-.75v-18.25h-39Z" fill="#2f234f"/>
</svg>
